<svg xmlns="http://www.w3.org/2000/svg" viewBox="0 0 447.85 445.68"><defs><style>.cls-1{fill:#f3ecff;}</style></defs><g id="Camada_2" data-name="Camada 2"><g id="Ñëîé_1" data-name="Ñëîé 1"><rect class="cls-1" x="117.22" y="26.15" width="2" height="25" rx="1" transform="translate(-3.49 64.29) rotate(-30)"/><rect class="cls-1" x="39.83" y="103.53" width="2" height="25" rx="1" transform="matrix(0.5, -0.87, 0.87, 0.5, -80.07, 93.37)"/><rect class="cls-1" x="39.82" y="314.94" width="2" height="25" rx="1" transform="translate(-222.34 526.51) rotate(-120)"/><rect class="cls-1" x="117.2" y="392.33" width="2" height="25" rx="1" transform="translate(18.14 814.51) rotate(-150)"/><rect class="cls-1" x="328.61" y="392.34" width="2" height="25" rx="1" transform="translate(817.48 590.63) rotate(150)"/><rect class="cls-1" x="405.99" y="314.96" width="2" height="25" rx="1" transform="translate(894.08 138.72) rotate(120)"/><rect class="cls-1" x="328.63" y="26.16" width="2" height="25" rx="1" transform="matrix(0.87, 0.5, -0.5, 0.87, 63.49, -159.63)"/><rect class="cls-1" x="406" y="103.54" width="2" height="25" rx="1" transform="translate(304 -294.46) rotate(60)"/><path class="cls-1" d="M202.53,4.81a2.23,2.23,0,0,1-2.25-2.19A2.23,2.23,0,0,1,202.53.38h8.93c1.19,0,1.56.31,1.56,1.37V39.67a2.57,2.57,0,1,1-5.12,0V4.81Z"/><path class="cls-1" d="M245.32,37.61a2.22,2.22,0,1,1,0,4.43H225.14c-1.69,0-2.81-.81-2.81-2.12,0-.63.25-1.13,1.12-2.31l14.44-19.24c2.06-2.82,3-5.13,3-7.44a6.36,6.36,0,0,0-6.62-6.49,6.94,6.94,0,0,0-6.68,4.62,11.22,11.22,0,0,0-.88,4.81c-.06,1.62-.81,2.37-2.31,2.37-1.68,0-2.5-1.06-2.5-3.31C221.89,5.44,227.39,0,235,0c6.62,0,11.37,4.44,11.37,10.62A12.65,12.65,0,0,1,243.51,19L229.58,37.61Z"/><path class="cls-1" d="M447.85,230.41c0,7.43-5.44,12.55-13.25,12.55a12.49,12.49,0,0,1-9.18-3.5,9.47,9.47,0,0,1-3-6.12c0-1.75.88-2.87,2.25-2.87s2.06.75,2.75,2.68c1.25,3.63,3.56,5.38,7,5.38a7.66,7.66,0,0,0,7.93-8c0-5-2.37-7.43-7.25-7.56-2.06-.06-3.12-.81-3.12-2.25,0-1.18.62-1.68,2.69-2.18,4.24-1.07,5.87-2.94,5.87-6.69,0-4.12-2.38-6.87-5.94-6.87s-5.43,1.94-5.93,6.12c-.19,1.75-.81,2.38-2.38,2.38a2.27,2.27,0,0,1-2.43-2.56c0-5.94,4.68-10.37,10.93-10.37s10.87,4.49,10.87,10.74a10.07,10.07,0,0,1-4.94,8.87C445.47,221.85,447.85,225.22,447.85,230.41Z"/><path class="cls-1" d="M8.12,217.29a13.33,13.33,0,0,1,6.5-1.63c6.24,0,10.68,5.56,10.68,13.56S19.87,243,12.56,243,0,237,0,228.34c0-9.24,5.81-19.86,14.81-26.86a3.5,3.5,0,0,1,2.06-.93A2.33,2.33,0,0,1,19,202.92c0,.81-.31,1.25-2.06,2.81A38.92,38.92,0,0,0,8,217.29Zm-3,11.8c0,5.63,2.75,9.06,7.37,9.06s7.31-3.43,7.31-9.18-2.62-8.87-7.18-8.87S5.12,223.47,5.12,229.09Z"/><path class="cls-1" d="M228.39,428.93a12.8,12.8,0,0,1-6.31,1.63c-6.43,0-10.81-5.5-10.81-13.49s5.44-13.81,12.75-13.81,12.55,6,12.55,14.62c0,9.24-5.87,19.8-14.86,26.86a3.57,3.57,0,0,1-2.07.94,2.34,2.34,0,0,1-2.12-2.38c0-.81.31-1.25,2.06-2.81a37.84,37.84,0,0,0,8.93-11.56Zm-11.62-11.68c0,5.69,2.56,8.87,7.18,8.87s7.5-3.43,7.5-8.93c0-5.68-2.75-9.12-7.37-9.12S216.77,411.51,216.77,417.25Z"/></g></g></svg>